<svg xmlns:mydata="http://www.w3.org/2000/svg" mydata:contrastcolor="BEC6C4" mydata:template="Contrast" mydata:presentation="2.5" mydata:layouttype="undefined" mydata:specialfontid="undefined" mydata:id1="336" mydata:id2="784" mydata:companyname="imogi" mydata:companytagline="" version="1.1" xmlns="http://www.w3.org/2000/svg" xmlns:xlink="http://www.w3.org/1999/xlink" viewBox="0 0 550 470"><g fill="#101820" fill-rule="none" stroke="none" stroke-width="1" stroke-linecap="butt" stroke-linejoin="miter" stroke-miterlimit="10" stroke-dasharray="" stroke-dashoffset="0" font-family="none" font-weight="none" font-size="none" text-anchor="none" style="mix-blend-mode: normal"><g data-paper-data="{&quot;isGlobalGroup&quot;:true,&quot;bounds&quot;:{&quot;x&quot;:83.49541284403671,&quot;y&quot;:190.29437121832527,&quot;width&quot;:383.00917431192676,&quot;height&quot;:89.41125756334944}}"><g data-paper-data="{&quot;isPrimaryText&quot;:true}"><path d="M87.81242,278.80207c2.3091,0 4.21661,-1.90752 4.21661,-4.21661v-78.30856c0,-2.3091 -1.90752,-4.21661 -4.21661,-4.21661c-2.3091,0 -4.31701,1.80712 -4.31701,4.21661v78.30856c0,2.40949 2.00791,4.21661 4.31701,4.21661z" data-paper-data="{&quot;glyphName&quot;:&quot;I&quot;,&quot;glyphIndex&quot;:0,&quot;firstGlyphOfWord&quot;:true,&quot;word&quot;:1}" fill-rule="nonzero" id="path-id-98721"></path><path d="M165.8198,278.80207c1.80712,0 3.51385,-1.10435 4.11622,-2.91147l21.98663,-67.46584l24.29573,67.56623c0.60237,1.60633 2.2087,2.81108 4.01582,2.81108c0.60237,0 1.10435,-0.1004 1.50593,-0.30119c2.10831,-0.70277 3.31305,-3.21266 2.50989,-5.42136l-28.91393,-81.11964c-0.60237,-2.00791 -5.62215,-3.01187 -7.32888,1.80712l-26.20325,79.51331c-0.80316,2.10831 0.50198,4.6182 2.71068,5.42136c0.50198,0.1004 1.00396,0.1004 1.30514,0.1004zM121.14376,278.80207c1.80712,0 3.51385,-1.10435 4.11622,-2.91147l24.29573,-67.26505l6.02374,23.69336c0.60237,1.90752 2.3091,3.11226 4.21661,3.11226c0.40158,0 0.80316,0 1.10435,-0.20079v-0.1004l-0.1004,0.1004l0.1004,0.1004c2.3091,-0.60237 3.61424,-2.91147 3.11226,-5.22057l-9.33679,-35.94162c-1.40554,-5.22057 -7.32888,-3.91543 -8.93521,0.1004l-1.10435,2.61029l-27.408,76.20025c-0.90356,2.2087 0.30119,4.6182 2.40949,5.42136c0.40158,0.20079 0.80316,0.30119 1.50593,0.30119z" data-paper-data="{&quot;glyphName&quot;:&quot;M&quot;,&quot;glyphIndex&quot;:1,&quot;word&quot;:1}" fill-rule="nonzero" id="path-id-16233"></path><path d="M388.19603,279.70563c24.19534,0 43.87287,-19.67754 43.87287,-43.97327c0,-1.70673 -0.1004,-3.31305 -0.30119,-5.01978c-0.30119,-2.10831 -2.00791,-3.81503 -4.21661,-3.81503h-32.62857v-30.72105c0,-2.3091 -1.90752,-4.11622 -4.01582,-4.21661c-1.00396,-0.1004 -1.90752,-0.1004 -2.71068,-0.1004c-24.29573,0 -43.97327,19.67754 -43.97327,43.87287c0,24.29573 19.67754,43.97327 43.97327,43.97327zM388.19603,271.172c-19.57714,0 -35.43964,-15.8625 -35.43964,-35.43964c0,-18.87437 14.85855,-34.43569 33.73292,-35.33925l-0.1004,-0.1004v30.92184c0,2.3091 1.90752,4.21661 4.21661,4.21661h32.92975v0.30119c0,19.57714 -15.8625,35.43964 -35.33925,35.43964z" data-paper-data="{&quot;glyphName&quot;:&quot;G&quot;,&quot;glyphIndex&quot;:3,&quot;word&quot;:1}" fill-rule="nonzero" id="path-id-4137"></path><path d="M462.28797,278.80207c2.3091,0 4.21661,-1.90752 4.21661,-4.21661v-78.30856c0,-2.3091 -1.90752,-4.21661 -4.21661,-4.21661c-2.3091,0 -4.31701,1.80712 -4.31701,4.21661v78.30856c0,2.40949 2.00791,4.21661 4.31701,4.21661z" data-paper-data="{&quot;glyphName&quot;:&quot;I&quot;,&quot;glyphIndex&quot;:4,&quot;lastGlyphOfWord&quot;:true,&quot;word&quot;:1}" fill-rule="nonzero" id="path-id-25809"></path><g data-paper-data="{&quot;fillRule&quot;:&quot;evenodd&quot;,&quot;fillRuleOriginal&quot;:&quot;evenodd&quot;,&quot;isIcon&quot;:true,&quot;iconStyle&quot;:&quot;icon-in-text&quot;,&quot;selectedEffects&quot;:{&quot;container&quot;:&quot;&quot;,&quot;transformation&quot;:&quot;&quot;,&quot;pattern&quot;:&quot;&quot;},&quot;bounds&quot;:{&quot;x&quot;:241.41800000000006,&quot;y&quot;:193.667,&quot;width&quot;:84.93399999999991,&quot;height&quot;:84.934},&quot;iconType&quot;:&quot;icon&quot;,&quot;rawIconId&quot;:&quot;2755040&quot;,&quot;suitableAsStandaloneIcon&quot;:true}" fill-rule="evenodd"><path d="M326.352,236.134c0,23.392 -19.075,42.467 -42.467,42.467c-23.392,0 -42.467,-19.075 -42.467,-42.467c0,-23.392 19.075,-42.467 42.467,-42.467c23.392,0 42.467,19.075 42.467,42.467zM283.83825,273.55059h0.05554c8.45775,-0.02028 15.56309,-9.29193 18.58094,-22.80525c1.04854,-4.78694 1.57292,-9.6738 1.56394,-14.57428c-0.00082,-0.96067 -0.0116,-1.91796 -0.05254,-2.86508c-0.03398,-0.8936 -0.08128,-1.77703 -0.14865,-2.65379c1.1289,0.97591 2.17863,1.96554 3.1492,2.9689c5.94797,6.1568 8.68709,12.60527 6.45716,17.1137c-1.44014,2.91164 -4.77661,4.65992 -9.2426,5.26499c-0.48366,1.58579 -1.05131,3.14471 -1.70046,4.67018c7.11439,-0.47259 12.58581,-3.12712 14.96843,-7.94415c3.617,-7.31274 -1.03529,-17.28772 -10.99658,-25.76366c-1.07511,-0.91583 -2.21713,-1.81475 -3.41581,-2.6832c-1.66895,-1.23463 -3.44924,-2.413 -5.34088,-3.53512c0.51532,2.01362 0.91643,4.05478 1.2013,6.11368c0.4291,3.08334 0.64054,6.1931 0.63268,9.30615c-0.00599,0.94061 -0.02537,1.87455 -0.07492,2.80199l-0.00337,0.00674c-0.20134,5.69244 -1.24995,11.32314 -3.11126,16.70646c-0.49025,1.38685 -1.06119,2.74398 -1.70966,4.06429c-2.84053,5.74281 -6.6677,9.32755 -10.80504,9.31865c-2.35994,-0.00659 -4.73522,-1.26492 -6.8909,-3.592c-1.39074,0.39759 -2.76509,0.72826 -4.11631,0.9784c-0.26758,0.05135 -0.54189,0.0994 -0.80274,0.13734c3.36678,4.52108 7.44088,6.9537 11.80253,6.96507zM283.89027,198.70321c-8.15836,0 -15.03684,8.59248 -18.21785,21.27911c-0.3443,1.36971 -0.64369,2.79181 -0.89068,4.25141c-0.36675,2.04333 -0.62872,4.16151 -0.80087,6.35454c1.57644,-1.35466 3.22824,-2.61913 4.94741,-3.78728c2.57355,-1.75165 5.26723,-3.31986 8.06106,-4.69293c0.84578,-0.41166 1.69155,-0.80835 2.54481,-1.1751h0.00748c5.19171,-2.34332 10.70362,-3.89977 16.35415,-4.61808c1.4605,-0.17544 2.93005,-0.26541 4.40103,-0.26945c6.40694,0 11.31692,1.84125 13.1432,5.55368c1.04038,2.11818 0.96553,4.8052 -0.16466,7.76916c0.97302,1.07032 1.87867,2.1556 2.70199,3.25586c0.16466,0.21706 0.32933,0.4416 0.47902,0.65866c2.55978,-5.02233 2.93402,-9.75269 1.01044,-13.66721c-3.74237,-7.61198 -15.22396,-9.88734 -28.70397,-6.59405c-4.75565,1.18251 -9.3685,2.87908 -13.75695,5.05968c-0.86074,0.42663 -1.714,0.86074 -2.54481,1.31731c-0.7859,0.42663 -1.55683,0.86074 -2.31278,1.30983c0.37424,-1.44455 0.79588,-2.82424 1.26492,-4.13906c2.88162,-8.06106 7.44731,-13.37523 12.47706,-13.37523c3.24838,0 6.29466,2.21548 8.81702,5.95037c1.63579,-0.26953 3.28475,-0.45193 4.93993,-0.54639c-3.5777,-6.16742 -8.38291,-9.89482 -13.75695,-9.89482zM283.87799,252.99787c-2.34864,-0.84211 -4.64765,-1.8167 -6.88603,-2.91905c-8.12094,-3.99685 -14.93954,-9.32598 -19.20584,-15.0069c-3.88454,-5.17195 -5.14198,-10.11188 -3.45046,-13.54737c1.43707,-2.91905 4.78282,-4.68545 9.26618,-5.29919c0.50148,-1.63916 1.07032,-3.19598 1.68407,-4.66299c-7.12554,0.47154 -12.60434,3.15856 -14.98448,7.97873c-2.49242,5.08214 -1.11523,11.55643 3.8921,18.22534c4.67789,6.23479 12.07281,12.04294 20.81505,16.33918c0.6511,0.32184 1.30234,0.62872 1.95352,0.91314c-3.75562,0.88994 -7.61654,1.25399 -11.47231,1.08162c-3.15459,-0.17926 -6.59465,-0.8222 -9.08782,-2.90348c-0.86344,-0.71584 -1.5673,-1.60458 -2.06624,-2.60903c-1.04039,-2.11818 -0.96555,-4.8052 0.16466,-7.76916c-0.97303,-1.07032 -1.87864,-2.1556 -2.70201,-3.25586c-0.16466,-0.21706 -0.32933,-0.4416 -0.47902,-0.65866c-2.55978,5.02226 -2.93402,9.75261 -1.01044,13.66713c3.26135,6.63687 11.54874,8.20073 18.24541,8.0324c5.22255,-0.19453 10.38822,-1.15579 15.33114,-2.85303c2.36361,-0.77969 4.68245,-1.68916 6.94584,-2.72444c-2.35904,-0.5258 -4.68163,-1.20332 -6.95332,-2.02836zM283.889,238.37419c0.0736,0 0.14703,-0.00362 0.22028,-0.01085c0.07325,-0.00719 0.14598,-0.01796 0.21818,-0.03233c0.07215,-0.01437 0.14346,-0.03223 0.21391,-0.05359c0.07041,-0.02136 0.13962,-0.04613 0.20763,-0.07432c0.06801,-0.02814 0.13447,-0.05958 0.19939,-0.09431c0.06487,-0.03468 0.12791,-0.07245 0.18914,-0.11332c0.06118,-0.04092 0.12023,-0.08473 0.17716,-0.13143c0.05688,-0.04666 0.11135,-0.096 0.16339,-0.14805c0.05205,-0.05205 0.10139,-0.10651 0.14805,-0.16339c0.0467,-0.05693 0.09052,-0.11599 0.13143,-0.17716c0.04087,-0.06123 0.07864,-0.12427 0.11332,-0.18914c0.03473,-0.06492 0.06617,-0.13138 0.09431,-0.19939c0.02819,-0.06801 0.05297,-0.13722 0.07432,-0.20763c0.02136,-0.07046 0.03922,-0.14176 0.05359,-0.21391c0.01437,-0.0722 0.02515,-0.14493 0.03233,-0.21818c0.00723,-0.07325 0.01085,-0.14667 0.01085,-0.22028c0,-0.0736 -0.00362,-0.14703 -0.01085,-0.22028c-0.00719,-0.07325 -0.01796,-0.14598 -0.03233,-0.21818c-0.01437,-0.07215 -0.03223,-0.14346 -0.05359,-0.21391c-0.02136,-0.07041 -0.04613,-0.13962 -0.07432,-0.20763c-0.02814,-0.06801 -0.05958,-0.13447 -0.09431,-0.19939c-0.03468,-0.06487 -0.07245,-0.12791 -0.11332,-0.18914c-0.04092,-0.06118 -0.08473,-0.12023 -0.13143,-0.17716c-0.04666,-0.05688 -0.096,-0.11135 -0.14805,-0.16339c-0.05205,-0.05205 -0.10651,-0.10139 -0.16339,-0.14805c-0.05693,-0.0467 -0.11599,-0.09052 -0.17716,-0.13143c-0.06123,-0.04087 -0.12427,-0.07864 -0.18914,-0.11332c-0.06492,-0.03473 -0.13138,-0.06617 -0.19939,-0.09431c-0.06801,-0.02819 -0.13722,-0.05297 -0.20763,-0.07432c-0.07046,-0.02136 -0.14176,-0.03922 -0.21391,-0.05359c-0.0722,-0.01437 -0.14493,-0.02515 -0.21818,-0.03233c-0.07325,-0.00723 -0.14667,-0.01085 -0.22028,-0.01085c-0.0736,0 -0.14703,0.00362 -0.22028,0.01085c-0.07325,0.00719 -0.14598,0.01796 -0.21818,0.03233c-0.07215,0.01437 -0.14346,0.03223 -0.21391,0.05359c-0.07041,0.02136 -0.13962,0.04613 -0.20763,0.07432c-0.06801,0.02814 -0.13447,0.05958 -0.19939,0.09431c-0.06487,0.03468 -0.12791,0.07245 -0.18914,0.11332c-0.06118,0.04092 -0.12023,0.08473 -0.17716,0.13143c-0.05688,0.04666 -0.11135,0.096 -0.16339,0.14805c-0.05205,0.05205 -0.10139,0.10651 -0.14805,0.16339c-0.0467,0.05693 -0.09052,0.11599 -0.13143,0.17716c-0.04087,0.06123 -0.07864,0.12427 -0.11332,0.18914c-0.03473,0.06492 -0.06617,0.13138 -0.09431,0.19939c-0.02819,0.06801 -0.05297,0.13722 -0.07432,0.20763c-0.02136,0.07046 -0.03922,0.14176 -0.05359,0.21391c-0.01437,0.0722 -0.02515,0.14493 -0.03233,0.21818c-0.00723,0.07325 -0.01085,0.14667 -0.01085,0.22028c0,0.0736 0.00362,0.14703 0.01085,0.22028c0.00719,0.07325 0.01796,0.14598 0.03233,0.21818c0.01437,0.07215 0.03223,0.14346 0.05359,0.21391c0.02136,0.07041 0.04613,0.13962 0.07432,0.20763c0.02814,0.06801 0.05958,0.13447 0.09431,0.19939c0.03468,0.06487 0.07245,0.12791 0.11332,0.18914c0.04092,0.06118 0.08473,0.12023 0.13143,0.17716c0.04666,0.05688 0.096,0.11135 0.14805,0.16339c0.05205,0.05205 0.10651,0.10139 0.16339,0.14805c0.05693,0.0467 0.11599,0.09052 0.17716,0.13143c0.06123,0.04087 0.12427,0.07864 0.18914,0.11332c0.06492,0.03473 0.13138,0.06617 0.19939,0.09431c0.06801,0.02819 0.13722,0.05297 0.20763,0.07432c0.07046,0.02136 0.14176,0.03922 0.21391,0.05359c0.0722,0.01437 0.14493,0.02515 0.21818,0.03233c0.07325,0.00723 0.14667,0.01085 0.22028,0.01085z" data-paper-data="{&quot;isPathIcon&quot;:true}" id="path-id-59831"></path></g></g></g></g><rect data-path-id="path-id-16233" class="invisible-bbox" x="117" y="190" fill="transparent" width="108" height="89"></rect><rect data-path-id="path-id-4137" class="invisible-bbox" x="344" y="192" fill="transparent" width="88" height="88"></rect><rect data-path-id="path-id-59831" class="invisible-bbox" x="241" y="194" fill="transparent" width="85" height="85"></rect><rect data-path-id="path-id-98721" class="invisible-bbox" x="83" y="192" fill="transparent" width="9" height="87"></rect><rect data-path-id="path-id-25809" class="invisible-bbox" x="458" y="192" fill="transparent" width="9" height="87"></rect></svg>